<svg width="61" height="53" viewBox="0 0 61 53" fill="none" xmlns="http://www.w3.org/2000/svg">
<path d="M7.30002 19.6917C7.30002 12.512 13.1203 6.69168 20.3 6.69168H47.2252C54.4049 6.69168 60.2252 12.512 60.2252 19.6917V39.3168C60.2252 46.4965 54.4049 52.3168 47.2252 52.3168H20.3C13.1203 52.3168 7.30002 46.4965 7.30002 39.3168V19.6917Z" fill="#31C073"/>
<path d="M7.30002 19.6917C7.30002 12.512 13.1203 6.69168 20.3 6.69168H47.2252C54.4049 6.69168 60.2252 12.512 60.2252 19.6917V39.3168C60.2252 46.4965 54.4049 52.3168 47.2252 52.3168H20.3C13.1203 52.3168 7.30002 46.4965 7.30002 39.3168V19.6917Z" fill="url(#paint0_linear_22_23)"/>
<path d="M4.25832 16.65C4.25832 9.47032 10.0786 3.65002 17.2583 3.65002H43.5751C50.7548 3.65002 56.5751 9.47032 56.5751 16.65V36.2751C56.5751 43.4548 50.7548 49.2751 43.5751 49.2751H17.2583C10.0786 49.2751 4.25832 43.4548 4.25832 36.2751V16.65Z" fill="#31C073"/>
<path d="M4.25832 16.65C4.25832 9.47032 10.0786 3.65002 17.2583 3.65002H43.5751C50.7548 3.65002 56.5751 9.47032 56.5751 16.65V36.2751C56.5751 43.4548 50.7548 49.2751 43.5751 49.2751H17.2583C10.0786 49.2751 4.25832 43.4548 4.25832 36.2751V16.65Z" fill="url(#paint1_linear_22_23)"/>
<path d="M0 13C0 5.8203 5.8203 0 13 0H39.9252C47.1049 0 52.9251 5.8203 52.9251 13V32.6251C52.9251 39.8048 47.1048 45.6251 39.9251 45.6251H13C5.82029 45.6251 0 39.8048 0 32.6251V13Z" fill="#31C073"/>
<path d="M0 13C0 5.8203 5.8203 0 13 0H39.9252C47.1049 0 52.9251 5.8203 52.9251 13V32.6251C52.9251 39.8048 47.1048 45.6251 39.9251 45.6251H13C5.82029 45.6251 0 39.8048 0 32.6251V13Z" fill="url(#paint2_linear_22_23)"/>
<circle cx="10.3417" cy="11.5584" r="3.04167" fill="white"/>
<circle cx="10.3417" cy="22.5084" r="3.04167" fill="white"/>
<circle cx="10.3417" cy="34.0668" r="3.04167" fill="white"/>
<rect x="17.6417" y="9.12503" width="22.5084" height="4.25834" rx="2.12917" fill="white"/>
<rect x="17.6417" y="20.0751" width="30.4167" height="4.25834" rx="2.12917" fill="white"/>
<rect x="17.6417" y="31.6334" width="25.5501" height="4.25834" rx="2.12917" fill="white"/>
<defs>
<linearGradient id="paint0_linear_22_23" x1="21.6339" y1="-2.52108" x2="62.9074" y2="60.429" gradientUnits="userSpaceOnUse">
<stop stop-color="#4068F3"/>
<stop offset="1" stop-color="white" stop-opacity="0"/>
</linearGradient>
<linearGradient id="paint1_linear_22_23" x1="51.7794" y1="57.8299" x2="-32.6212" y2="-20.1187" gradientUnits="userSpaceOnUse">
<stop stop-color="#305CF7"/>
<stop offset="1" stop-color="white" stop-opacity="0"/>
</linearGradient>
<linearGradient id="paint2_linear_22_23" x1="7.98077" y1="5.92249" x2="55.3693" y2="63.8044" gradientUnits="userSpaceOnUse">
<stop stop-color="#4068F2"/>
<stop offset="1" stop-color="white" stop-opacity="0"/>
</linearGradient>
</defs>
</svg>
